# xmcd
#
# Track frame offsets:
# 153
# 18032
# 47034
# 65101
# 82030
# 94654
# 117093
# 139985
#
# Disc length: 2517 seconds
#
# Revision: 0
# Processed by: cddbd v1.5.1PL0 Copyright (c) Steve Scherf et al.
# Submitted via: Audion 3.0.2 (http://www.panic.com/audion/)
#
DISCID=6709d308
DTITLE=Ford and Musslewhite - Ford and Musslewhite
DYEAR=1900
DGENRE=
TTITLE0=It ain't right
TTITLE1=Love me or leave me
TTITLE2=Finger lickin' good
TTITLE3=Two little girls
TTITLE4=Up and down the avenue
TTITLE5=Highway blues
TTITLE6=Wild, wild women
TTITLE7=Takin' my time
EXTD=
EXTT0=
EXTT1=
EXTT2=
EXTT3=
EXTT4=
EXTT5=
EXTT6=
EXTT7=
PLAYORDER=
